<svg xmlns="http://www.w3.org/2000/svg" xmlns:xlink="http://www.w3.org/1999/xlink" viewBox="0,0,256,256" width="128px" height="128px" fill-rule="nonzero"><g fill="#e5e4e2" fill-rule="nonzero" stroke="none" stroke-width="1" stroke-linecap="butt" stroke-linejoin="miter" stroke-miterlimit="10" stroke-dasharray="" stroke-dashoffset="0" font-family="none" font-weight="none" font-size="none" text-anchor="none" style="mix-blend-mode: normal"><g transform="scale(4,4)"><path d="M32,2c-4.33984,0 -8.32031,1.54297 -11.43359,4.10938c-0.16016,0.07422 -0.28516,0.19922 -0.38281,0.34375c-3.78125,3.30469 -6.18359,8.14453 -6.18359,13.54688h-3c-2.75781,0 -5,2.24219 -5,5v31.58594l-4,4c-0.57422,0.57422 -0.74219,1.42969 -0.43359,2.17969c0.30859,0.75 1.03516,1.23438 1.84766,1.23438h10.58594c1.10156,0 2,-0.89844 2,-2v-12.18359c0.3125,0.11328 0.64844,0.18359 1,0.18359h0.38281l1.44531,2.89453c0.33984,0.68359 1.02344,1.10547 1.78906,1.10547h7.38281v2.16797c-0.52734,0.17578 -1.00391,0.47656 -1.36719,0.91016l-3.03516,3.64063c-0.5,0.60547 -0.60547,1.41797 -0.27344,2.12891c0.33203,0.71094 1.02734,1.15234 1.8125,1.15234h13.72656c0.78516,0 1.48047,-0.44141 1.8125,-1.15234c0.33203,-0.70703 0.23047,-1.52344 -0.27344,-2.12891l-3.03125,-3.64062c-0.36719,-0.43359 -0.84375,-0.73437 -1.37109,-0.91016v-2.16797h7.38281c0.76563,0 1.44922,-0.42578 1.78906,-1.10547l1.44531,-2.89453h0.38281c0.35156,0 0.6875,-0.07031 1,-0.18359v12.18359c0,1.10156 0.89844,2 2,2h10.58594c0.8125,0 1.53516,-0.48437 1.84766,-1.23437c0.3125,-0.75 0.14063,-1.60547 -0.43359,-2.17969l-4,-4v-31.58594c0,-2.75781 -2.24219,-5 -5,-5h-3c0,-9.92578 -8.07422,-18 -18,-18zM32,4c8.82031,0 16,7.17969 16,16h-32c0,-4.78125 2.11719,-9.06641 5.45313,-12h7.54688c0.55469,0 1,-0.44922 1,-1c0,-0.55078 -0.44531,-1 -1,-1h-4.73047c2.29688,-1.26953 4.92969,-2 7.73047,-2zM33,6c-0.55469,0 -1,0.44922 -1,1c0,0.55078 0.44531,1 1,1h4c0.55469,0 1,-0.44922 1,-1c0,-0.55078 -0.44531,-1 -1,-1zM32,10c-2.20703,0 -4,1.79297 -4,4c0,2.20703 1.79297,4 4,4c2.20703,0 4,-1.79297 4,-4c0,-2.20703 -1.79297,-4 -4,-4zM32,12c1.10156,0 2,0.89844 2,2c0,1.10156 -0.89844,2 -2,2c-1.10156,0 -2,-0.89844 -2,-2c0,-1.10156 0.89844,-2 2,-2zM40,12c-1.10547,0 -2,0.89453 -2,2c0,1.10547 0.89453,2 2,2c1.10547,0 2,-0.89453 2,-2c0,-1.10547 -0.89453,-2 -2,-2zM11,22h3v8h-6v-5c0,-1.65234 1.34766,-3 3,-3zM16,22h32v25c0,0.55078 -0.44922,1 -1,1h-30c-0.55078,0 -1,-0.44922 -1,-1zM50,22h3c1.65234,0 3,1.34766 3,3v5h-6zM19,24c-0.55469,0 -1,0.44922 -1,1v2c0,0.55078 0.44531,1 1,1c0.55469,0 1,-0.44922 1,-1v-2c0,-0.55078 -0.44531,-1 -1,-1zM24,24c-0.55469,0 -1,0.44922 -1,1v2c0,0.55078 0.44531,1 1,1c0.55469,0 1,-0.44922 1,-1v-2c0,-0.55078 -0.44531,-1 -1,-1zM29,24c-0.55469,0 -1,0.44922 -1,1v2c0,0.55078 0.44531,1 1,1c0.55469,0 1,-0.44922 1,-1v-2c0,-0.55078 -0.44531,-1 -1,-1zM35,24c-0.55469,0 -1,0.44922 -1,1v2c0,0.55078 0.44531,1 1,1c0.55469,0 1,-0.44922 1,-1v-2c0,-0.55078 -0.44531,-1 -1,-1zM40,24c-0.55469,0 -1,0.44922 -1,1v2c0,0.55078 0.44531,1 1,1c0.55469,0 1,-0.44922 1,-1v-2c0,-0.55078 -0.44531,-1 -1,-1zM45,24c-0.55469,0 -1,0.44922 -1,1v2c0,0.55078 0.44531,1 1,1c0.55469,0 1,-0.44922 1,-1v-2c0,-0.55078 -0.44531,-1 -1,-1zM23,30c-0.55469,0 -1,0.44922 -1,1c0,0.55078 0.44531,1 1,1h18c0.55469,0 1,-0.44922 1,-1c0,-0.55078 -0.44531,-1 -1,-1zM8,32h6v24h-6zM50,32h6v24h-6zM28,34c-1.10156,0 -2,0.89844 -2,2v8c0,1.10156 0.89844,2 2,2h8c1.10156,0 2,-0.89844 2,-2v-8c0,-1.10156 -0.89844,-2 -2,-2zM28,36h8v8h-8zM19.61719,50h24.76563l-1,2h-22.76562zM30,54h4v2h-4zM7.41406,58h6.58594v4h-10.58594zM28.9375,58h6.125c0.30078,0 0.57813,0.12891 0.76953,0.35938l3.04297,3.64063h-13.73828l3.03516,-3.64062c0.1875,-0.23047 0.46875,-0.35937 0.76563,-0.35937zM50,58h6.58984l4.00391,4h-10.59375z"></path></g></g></svg>